<?xml version="1.0" standalone="no"?>
<!DOCTYPE svg PUBLIC "-//W3C//DTD SVG 20010904//EN"
 "http://www.w3.org/TR/2001/REC-SVG-20010904/DTD/svg10.dtd">
<svg version="1.0" xmlns="http://www.w3.org/2000/svg"
 width="288.000000pt" height="288.000000pt" viewBox="0 0 288.000000 288.000000"
 preserveAspectRatio="xMidYMid meet">
<metadata>
Created by potrace 1.14, written by Peter Selinger 2001-2017
</metadata>
<g transform="translate(0.000000,288.000000) scale(0.100000,-0.100000)"
fill="#000000" stroke="none">
<path d="M2539 2778 c-1 -7 -3 -23 -4 -35 -1 -12 3 -24 9 -26 7 -3 13 4 13 14
1 11 -3 17 -8 13 -6 -3 -7 4 -3 20 3 14 3 26 0 26 -3 0 -7 -6 -7 -12z"/>
<path d="M2531 2694 c0 -11 3 -14 6 -6 3 7 2 16 -1 19 -3 4 -6 -2 -5 -13z"/>
<path d="M876 2467 c3 -10 9 -15 12 -12 3 3 0 11 -7 18 -10 9 -11 8 -5 -6z"/>
<path d="M1469 2275 c-3 -6 -7 -30 -8 -55 -2 -25 -7 -51 -13 -57 -7 -9 -7 -13
1 -13 8 0 9 -6 2 -17 -5 -10 -12 -39 -16 -65 l-7 -47 -78 -26 c-43 -14 -88
-27 -99 -28 -12 -1 -21 -4 -21 -8 0 -4 -14 -9 -31 -13 -23 -4 -192 -82 -269
-123 -3 -2 -18 18 -35 45 -50 80 -148 215 -195 270 -52 60 -106 83 -147 61
-12 -7 -23 -18 -23 -25 0 -7 -6 -14 -12 -17 -17 -5 23 -130 70 -217 19 -36 42
-78 50 -93 8 -16 30 -52 48 -80 19 -28 34 -55 34 -58 0 -4 -17 -18 -37 -30
-52 -31 -154 -110 -238 -185 -110 -97 -140 -198 -79 -264 13 -14 31 -34 41
-46 10 -12 33 -29 52 -38 29 -16 39 -16 79 -5 37 10 63 31 144 115 55 57 119
115 142 131 22 15 47 34 54 41 7 6 16 12 20 12 26 -1 271 -456 368 -683 33
-78 64 -196 64 -248 0 -40 34 -134 61 -166 13 -17 39 -40 57 -52 18 -12 31
-25 28 -29 -2 -4 24 -8 59 -10 53 -3 73 2 127 26 80 38 94 54 113 128 14 54
13 66 0 119 -21 78 -27 86 -128 175 -53 47 -104 103 -134 150 -47 71 -74 118
-188 335 -64 120 -61 114 -138 242 -37 62 -72 115 -77 118 -6 4 -10 10 -10 14
0 17 253 151 265 140 2 -3 -11 -51 -29 -108 -25 -76 -33 -113 -29 -144 8 -59
38 -116 60 -113 9 2 29 -8 43 -21 29 -27 34 -28 54 -7 9 8 20 13 25 10 17 -11
42 6 57 38 8 17 22 43 31 58 16 25 16 36 -1 189 -15 135 -16 163 -4 170 24 15
102 24 218 24 144 0 194 -18 210 -74 16 -59 13 -74 -47 -192 -55 -107 -58
-115 -55 -178 1 -36 7 -70 12 -75 6 -6 10 -18 10 -28 0 -31 38 -88 59 -88 5 0
17 -8 26 -17 22 -21 107 -29 162 -14 66 18 98 52 133 142 17 43 37 110 46 147
9 37 25 94 36 127 19 57 21 128 4 200 -9 38 -56 159 -71 181 -44 68 -123 118
-245 155 -60 18 -100 23 -200 23 -137 1 -190 -4 -190 -17 0 -5 -15 -6 -32 -2
-26 5 -30 4 -18 -5 12 -9 9 -11 -17 -8 -18 3 -30 1 -27 -4 3 -4 -6 -8 -20 -8
-18 0 -26 5 -26 18 0 15 -2 15 -11 2 -8 -11 -9 -6 -7 22 2 20 1 35 -3 32 -3
-2 -10 18 -13 44 -8 54 -30 111 -37 97z"/>
<path d="M2512 2080 c0 -14 2 -19 5 -12 2 6 2 18 0 25 -3 6 -5 1 -5 -13z"/>
<path d="M2490 1657 c0 -14 5 -29 10 -32 7 -4 8 3 4 22 -9 38 -14 42 -14 10z"/>
<path d="M2870 1453 c-2 -137 -12 -306 -25 -413 -18 -147 -22 -273 -7 -278 11
-3 30 175 24 231 -1 16 1 26 6 23 4 -2 9 108 11 245 1 137 0 249 -3 249 -3 0
-6 -26 -6 -57z"/>
<path d="M2828 744 c-5 -4 -8 -32 -7 -63 l1 -56 9 45 c10 49 8 86 -3 74z"/>
<path d="M851 704 c0 -11 3 -14 6 -6 3 7 2 16 -1 19 -3 4 -6 -2 -5 -13z"/>
<path d="M846 625 c4 -8 8 -15 10 -15 2 0 4 7 4 15 0 8 -4 15 -10 15 -5 0 -7
-7 -4 -15z"/>
<path d="M2816 611 c-7 -11 0 -180 7 -187 2 -3 5 40 5 96 0 98 -1 109 -12 91z"/>
<path d="M2391 214 c0 -11 3 -14 6 -6 3 7 2 16 -1 19 -3 4 -6 -2 -5 -13z"/>
</g>
</svg>
